<?xml version="1.0" encoding="UTF-8" standalone="yes"?>
<svg xmlns="http://www.w3.org/2000/svg" width="100%" height="100%" viewBox="0 0 58.972 16.054" fill="#0D131A">
  <path d="M6.67 5.31L6.67 5.31Q7.11 5.31 7.65 5.44Q8.19 5.57 8.72 5.89L8.72 5.89L9.18 9.52L6.92 9.78L6.53 8.00Q6.07 7.73 5.73 7.73L5.73 7.73Q5.22 7.73 4.84 8.12Q4.46 8.51 4.46 9.27L4.46 9.27L4.46 13.59L6.30 13.59L6.30 15.82L0.11 15.82L0.11 13.59L1.50 13.59L1.50 7.71L0 7.71L0 5.45L4.23 5.45L4.23 7.43Q4.48 6.53 5.05 5.92Q5.61 5.31 6.67 5.31ZM22.49 13.59L22.49 15.82L16.77 15.82L16.77 13.59L18.15 13.59L18.15 9.98Q18.15 8.65 17.68 8.07Q17.20 7.50 16.33 7.50L16.33 7.50Q15.32 7.50 14.75 8.12Q14.19 8.74 14.15 9.75L14.15 9.75L14.15 13.59L15.53 13.59L15.53 15.82L9.80 15.82L9.80 13.59L11.18 13.59L11.18 2.25L9.80 2.25L9.80 0L14.15 0L14.15 7.04Q15.18 5.24 17.48 5.24L17.48 5.24Q18.95 5.24 20.03 6.12Q21.11 6.99 21.11 8.83L21.11 8.83L21.11 13.59L22.49 13.59ZM30.02 5.31L30.02 5.31Q30.45 5.31 30.99 5.44Q31.53 5.57 32.06 5.89L32.06 5.89L32.52 9.52L30.27 9.78L29.88 8.00Q29.42 7.73 29.07 7.73L29.07 7.73Q28.57 7.73 28.19 8.12Q27.81 8.51 27.81 9.27L27.81 9.27L27.81 13.59L29.65 13.59L29.65 15.82L23.46 15.82L23.46 13.59L24.84 13.59L24.84 7.71L23.34 7.71L23.34 5.45L27.58 5.45L27.58 7.43Q27.83 6.53 28.39 5.92Q28.96 5.31 30.02 5.31ZM37.90 3.61L34.94 3.61L34.94 0.53L37.90 0.53L37.90 3.61ZM39.40 13.59L39.40 15.82L33.67 15.82L33.67 13.59L35.05 13.59L35.05 7.71L33.56 7.71L33.56 5.45L38.02 5.45L38.02 13.59L39.40 13.59ZM46.99 11.94L49.15 12.60Q48.92 14.40 47.91 15.23Q46.90 16.05 45.29 16.05L45.29 16.05Q43.56 16.05 42.49 15.19Q41.42 14.33 41.42 12.72L41.42 12.72L41.42 7.57L39.95 7.57L39.95 5.45L41.42 5.45L41.42 2.30L44.39 2.30L44.39 5.45L48.12 5.45L48.12 7.57L44.39 7.57L44.39 12.21Q44.39 13.57 45.63 13.57L45.63 13.57Q45.91 13.57 46.38 13.33Q46.85 13.09 46.99 11.94L46.99 11.94ZM58.97 12.65L58.97 12.65Q58.97 14.38 57.60 15.21Q56.23 16.05 54.05 16.05L54.05 16.05Q52.92 16.05 51.78 15.81Q50.65 15.57 49.61 15.04L49.61 15.04L50.02 12.14L52.32 12.40L52.32 13.69Q52.74 13.82 53.20 13.86Q53.66 13.89 53.89 13.89L53.89 13.89Q54.74 13.89 55.36 13.62Q55.98 13.34 55.98 12.79L55.98 12.79Q55.98 12.12 55.04 11.91Q54.10 11.71 52.85 11.50Q51.61 11.29 50.67 10.65Q49.73 10.00 49.73 8.46L49.73 8.46Q49.73 6.55 51.21 5.90Q52.69 5.24 54.28 5.24L54.28 5.24Q56.35 5.24 58.17 6.19L58.17 6.19L58.42 8.83L56.12 9.09L55.94 7.64Q55.18 7.38 54.30 7.38L54.30 7.38Q53.73 7.38 53.33 7.62Q52.92 7.87 52.92 8.37L52.92 8.37Q52.92 9.04 53.83 9.26Q54.74 9.48 55.95 9.68Q57.16 9.89 58.06 10.52Q58.97 11.16 58.97 12.65Z" preserveAspectRatio="none"/>
</svg>